<?xml version="1.0" encoding="UTF-8"?>
<svg xmlns="http://www.w3.org/2000/svg" xmlns:xlink="http://www.w3.org/1999/xlink" width="512pt" height="512pt" viewBox="0 0 512 512" version="1.1">
<g id="surface1">
<path style=" stroke:none;fill-rule:nonzero;fill:rgb(16.078431%,50.196078%,72.54902%);fill-opacity:1;" d="M 42.667969 106.667969 C 19.101562 106.667969 0 125.867188 0 149.332031 L 0 448 C 0 471.464844 19.101562 490.667969 42.667969 490.667969 L 469.332031 490.667969 C 492.90625 490.667969 512 471.464844 512 448 L 512 149.332031 C 512 125.867188 492.90625 106.667969 469.332031 106.667969 Z M 42.667969 106.667969 "/>
<path style=" stroke:none;fill-rule:nonzero;fill:rgb(16.078431%,50.196078%,72.54902%);fill-opacity:1;" d="M 64 21.332031 C 40.433594 21.332031 21.332031 40.535156 21.332031 64 L 21.332031 362.667969 C 21.332031 386.132812 40.433594 405.332031 64 405.332031 L 448 405.332031 C 471.574219 405.332031 490.667969 386.132812 490.667969 362.667969 L 490.667969 106.667969 C 490.667969 83.199219 471.574219 64 448 64 L 277.332031 64 L 213.332031 21.332031 Z M 64 21.332031 "/>
<path style=" stroke:none;fill-rule:nonzero;fill:rgb(74.117647%,76.470588%,78.039216%);fill-opacity:1;" d="M 490.667969 298.667969 L 490.667969 128 C 490.667969 104.535156 471.574219 85.332031 448 85.332031 L 64 85.332031 C 40.433594 85.332031 21.332031 104.535156 21.332031 128 L 21.332031 298.667969 Z M 490.667969 298.667969 "/>
<path style=" stroke:none;fill-rule:nonzero;fill:rgb(20.392157%,59.607843%,85.882353%);fill-opacity:1;" d="M 42.667969 106.667969 C 19.101562 106.667969 0 125.867188 0 149.332031 L 0 426.667969 C 0 450.132812 19.101562 469.332031 42.667969 469.332031 L 469.332031 469.332031 C 492.90625 469.332031 512 450.132812 512 426.667969 L 512 149.332031 C 512 125.867188 492.90625 106.667969 469.332031 106.667969 Z M 42.667969 106.667969 "/>
<path style=" stroke:none;fill-rule:nonzero;fill:rgb(16.078431%,50.196078%,72.54902%);fill-opacity:1;" d="M 256 178 L 116.667969 298.667969 L 136.664062 320 L 149.332031 308.671875 L 149.332031 405.332031 L 234.667969 405.332031 L 234.667969 341.332031 L 277.332031 341.332031 L 277.332031 405.332031 L 362.667969 405.332031 L 362.667969 308.671875 L 375.339844 320 L 395.328125 298.667969 L 362.667969 270.675781 L 362.667969 192 L 320 192 L 320 233.34375 Z M 256 178 "/>
</g>
</svg>
